#!OML:ASF F:\VICON\USERDATA\Patient Classification 1\PLAYGROUND\JustinFriday\JustinFriday.ASF
:FULLY-SPECIFIED
:DEGREES
3491
root 11.016 22.5188 50.4563 -351.736 -203.741 -352.5
lowerback 28.1526 -1.49154 1.7574
upperback 5.26215 -0.129506 2.3187
thorax -9.68569 0.343414 1.56672
lowerneck -0.543856 3.57906 -10.2072
upperneck -26.9905 9.78505 10.5928
head -9.32687 5.84209 4.47652
rclavicle 4.37326e-014 -7.95139e-015
rhumerus 36.6855 36.0601 -73.4844
rradius 55.5701
rwrist 14.988
rhand -30.2748 -2.3363
rfingers 7.12502
rthumb -3.58282 -32.2859
lclavicle 4.37326e-014 -7.95139e-015
lhumerus 8.63489 1.05508 74.224
lradius 66.8719
lwrist -32.1667
lhand -32.6298 -17.4124
lfingers 7.12502
lthumb -5.85684 12.4866
rfemur -55.2913 -11.6289 26.5287
rtibia 101.247
rfoot -20.0446 -10.6666
rtoes -5.17409
lfemur -29.3671 8.91942 -21.1867
ltibia 33.3162
lfoot -19.2856 1.57233
ltoes 16.979
3492
root 11.0423 22.5788 50.4395 -351.821 -203.466 -352.325
lowerback 28.2847 -1.51736 1.73925
upperback 5.29416 -0.12608 2.48421
thorax -9.71548 0.355761 1.7629
lowerneck -0.420905 3.56623 -9.89643
upperneck -27.3643 9.76863 10.2103
head -9.44974 5.84908 4.28472
rclavicle -2.0276e-014 1.88845e-014
rhumerus 36.4199 36.1479 -73.6743
rradius 55.2357
rwrist 15.2899
rhand -30.6162 -2.47119
rfingers 7.12502
rthumb -3.91253 -32.415
lclavicle -2.0276e-014 1.88845e-014
lhumerus 8.50742 1.00386 74.4343
lradius 66.4551
lwrist -32.1692
lhand -33.304 -17.5961
lfingers 7.12502
lthumb -6.50768 12.2839
rfemur -56.8276 -11.4561 26.6595
rtibia 102.476
rfoot -21.0547 -9.56357
rtoes -4.40542
lfemur -28.5501 8.79859 -20.853
ltibia 32.1874
lfoot -18.6889 1.23874
ltoes 16.9373
3493
root 11.0725 22.6291 50.4225 -352.132 -203.327 -352.566
lowerback 28.4939 -1.4451 1.32136
upperback 5.2986 -0.138967 2.50812
thorax -9.81151 0.365446 2.03869
lowerneck -0.190119 3.55763 -9.54548
upperneck -27.6023 9.72869 9.92472
head -9.54391 5.81681 4.11933
rclavicle 5.38706e-014 1.98785e-014
rhumerus 35.9926 36.2198 -74.01
rradius 55.0428
rwrist 15.4312
rhand -30.7037 -2.27465
rfingers 7.12502
rthumb -3.997 -32.2169
lclavicle 5.38706e-014 1.98785e-014
lhumerus 8.43677 0.994376 74.6115
lradius 65.9754
lwrist -32.1151
lhand -33.8451 -17.9462
lfingers 7.12502
lthumb -7.03005 11.9171
rfemur -58.3177 -11.2374 26.3515
rtibia 103.684
rfoot -21.8304 -8.95778
rtoes -5.09266
lfemur -27.5739 8.84301 -20.9756
ltibia 31.0137
lfoot -18.1409 1.07853
ltoes 16.1633
3494
root 11.1025 22.6806 50.4094 -352.58 -203.081 -352.939
lowerback 28.8574 -1.40657 0.838241
upperback 5.2813 -0.212939 2.50681
thorax -10.0062 0.350228 2.34926
lowerneck 0.0458608 3.55037 -9.57318
upperneck -27.7064 9.75955 10.0969
head -9.63897 5.81225 4.176
rclavicle 1.36167e-014 1.82882e-014
rhumerus 35.4859 36.2596 -74.3485
rradius 54.9153
rwrist 15.4495
rhand -30.7776 -2.00679
rfingers 7.12502
rthumb -4.06835 -31.9477
lclavicle 1.36167e-014 1.82882e-014
lhumerus 8.10702 0.872758 74.721
lradius 65.7343
lwrist -32.0568
lhand -34.0349 -18.5385
lfingers 7.12502
lthumb -7.21326 11.3185
rfemur -59.686 -11.1675 25.9448
rtibia 104.791
rfoot -22.6889 -8.41695
rtoes -5.17606
lfemur -26.3594 9.15781 -21.294
ltibia 29.7191
lfoot -17.6129 0.832948
ltoes 14.556
3495
root 11.1354 22.7312 50.3992 -353.025 -202.91 -353.119
lowerback 29.2858 -1.36265 0.473755
upperback 5.35944 -0.226678 2.5164
thorax -10.126 0.367997 2.58096
lowerneck 0.111673 3.54097 -9.64468
upperneck -27.8582 9.84858 10.3061
head -9.73077 5.85516 4.25248
rclavicle -7.9812e-014 7.41467e-014
rhumerus 35.2093 36.2477 -74.5887
rradius 54.736
rwrist 15.4672
rhand -31.0269 -1.96865
rfingers 7.12502
rthumb -4.30915 -31.9048
lclavicle -7.9812e-014 7.41467e-014
lhumerus 7.92782 0.760328 74.7741
lradius 65.5266
lwrist -32.0602
lhand -34.2556 -19.0081
lfingers 7.12502
lthumb -7.42627 10.8416
rfemur -60.9071 -10.8818 25.7237
rtibia 105.77
rfoot -23.5794 -7.15751
rtoes -1.81095
lfemur -25.0717 8.82128 -21.2409
ltibia 28.4756
lfoot -17.0522 1.19477
ltoes 13.4078
3496
root 11.1681 22.7649 50.3862 -353.137 -202.68 -352.954
lowerback 29.4725 -1.36506 0.427387
upperback 5.41067 -0.205096 2.62669
thorax -10.1602 0.390429 2.72655
lowerneck 0.0982332 3.47489 -9.62246
upperneck -27.868 9.7771 10.3611
head -9.72394 5.81841 4.27619
rclavicle -1.51076e-014 2.52457e-014
rhumerus 34.9619 36.2406 -74.7998
rradius 54.5471
rwrist 15.7347
rhand -31.365 -2.16249
rfingers 7.12502
rthumb -4.63555 -32.0918
lclavicle -1.51076e-014 2.52457e-014
lhumerus 7.90823 0.5597 74.8108
lradius 65.2417
lwrist -31.834
lhand -34.6713 -19.1571
lfingers 7.12502
lthumb -7.82755 10.678
rfemur -62.3565 -10.5023 25.893
rtibia 106.667
rfoot -24.3111 -6.74845
rtoes -4.77502
lfemur -24.3668 8.00422 -20.7192
ltibia 27.1928
lfoot -15.8876 1.44458
ltoes 14.9052
3497
root 11.1983 22.8009 50.3722 -353.201 -202.367 -352.727
lowerback 29.6123 -1.40759 0.496305
upperback 5.4097 -0.200156 2.78897
thorax -10.2313 0.400186 2.87133
lowerneck 0.15596 3.40042 -9.70352
upperneck -27.8432 9.66254 10.4436
head -9.71892 5.75938 4.33057
rclavicle 9.83984e-015 5.00937e-014
rhumerus 34.5609 36.294 -74.99
rradius 54.4738
rwrist 15.8321
rhand -31.7134 -2.39216
rfingers 7.12502
rthumb -4.97195 -32.3138
lclavicle 9.83984e-015 5.00937e-014
lhumerus 7.76759 0.248056 74.8638
lradius 65.0024
lwrist -31.4734
lhand -35.192 -19.1767
lfingers 7.12502
lthumb -8.33007 10.6391
rfemur -63.4368 -10.0931 25.7466
rtibia 107.488
rfoot -25.9888 -4.6826
rtoes -0.510148
lfemur -23.5356 8.03317 -20.3766
ltibia 25.9606
lfoot -14.9008 1.19154
ltoes 14.9339
3498
root 11.2335 22.8504 50.3558 -353.718 -202.242 -352.803
lowerback 30.0631 -1.35804 0.196128
upperback 5.54328 -0.17283 2.83465
thorax -10.2987 0.440799 3.09157
lowerneck 0.0595783 3.34349 -9.82662
upperneck -27.8657 9.65647 10.6312
head -9.72216 5.7662 4.42305
rclavicle 4.6118e-014 -4.37326e-015
rhumerus 34.2595 36.332 -75.2157
rradius 54.5015
rwrist 15.6908
rhand -31.8263 -2.66766
rfingers 7.12502
rthumb -5.08098 -32.5867
lclavicle 4.6118e-014 -4.37326e-015
lhumerus 7.63161 0.123474 74.9264
lradius 64.8614
lwrist -31.4019
lhand -35.5725 -19.4566
lfingers 7.12502
lthumb -8.69724 10.3442
rfemur -64.1223 -9.74616 25.533
rtibia 107.989
rfoot -26.9142 -3.87538
rtoes 0.630379
lfemur -22.2445 8.10549 -20.2549
ltibia 24.7796
lfoot -14.2576 1.11773
ltoes 15.4134
3499
root 11.2654 22.8992 50.3417 -353.998 -201.887 -352.843
lowerback 30.3275 -1.38548 -0.00766378
upperback 5.64889 -0.22119 2.927
thorax -10.3017 0.440317 3.33561
lowerneck -0.19728 3.26739 -9.92253
upperneck -27.8239 9.61728 10.7562
head -9.66295 5.76773 4.49558
rclavicle 1.07344e-014 7.59357e-014
rhumerus 33.9918 36.2933 -75.385
rradius 54.6151
rwrist 15.6224
rhand -31.7336 -2.89087
rfingers 7.12502
rthumb -4.99153 -32.8121
lclavicle 1.07344e-014 7.59357e-014
lhumerus 7.53823 0.123659 75.0745
lradius 64.8221
lwrist -31.4106
lhand -35.8573 -19.8223
lfingers 7.12502
lthumb -8.97206 9.96691
rfemur -65.1821 -9.66632 25.5273
rtibia 108.315
rfoot -27.1978 -3.82625
rtoes -0.156789
lfemur -21.3899 7.88292 -20.1207
ltibia 23.8627
lfoot -13.842 1.11869
ltoes 15.1046
3500
root 11.2931 22.932 50.3294 -353.81 -201.253 -352.716
lowerback 30.2639 -1.5227 0.0760892
upperback 5.603 -0.348828 3.09122
thorax -10.3156 0.382697 3.52298
lowerneck -0.401757 3.17803 -9.82268
upperneck -27.7318 9.48443 10.6826
head -9.56526 5.7112 4.46987
rclavicle -3.43897e-014 3.69739e-014
rhumerus 33.5884 36.2148 -75.5491
rradius 54.7698
rwrist 15.6474
rhand -31.7656 -3.00923
rfingers 7.12502
rthumb -5.02244 -32.9297
lclavicle -3.43897e-014 3.69739e-014
lhumerus 7.51225 0.0948432 75.2714
lradius 64.6509
lwrist -31.3526
lhand -35.9668 -20.2484
lfingers 7.12502
lthumb -9.07776 9.53627
rfemur -66.7844 -9.7756 25.6881
rtibia 108.606
rfoot -27.3898 -3.28787
rtoes -1.02907
lfemur -21.0807 7.28546 -19.8596
ltibia 23.0301
lfoot -13.3959 1.01433
ltoes 14.0945
3501
root 11.3368 22.9616 50.3185 -353.83 -201.22 -352.563
lowerback 30.3431 -1.43989 -0.0568296
upperback 5.63894 -0.278413 3.06923
thorax -10.3158 0.421954 3.54909
lowerneck -0.393089 3.09469 -9.44131
upperneck -27.8535 9.41217 10.5994
head -9.57988 5.65799 4.38015
rclavicle 9.68081e-014 -5.84427e-014
rhumerus 33.1984 36.0636 -76.0747
rradius 54.8202
rwrist 15.7365
rhand -31.9083 -2.9659
rfingers 7.12502
rthumb -5.16023 -32.8831
lclavicle 9.68081e-014 -5.84427e-014
lhumerus 7.37349 -0.0953562 75.0936
lradius 64.6937
lwrist -31.1986
lhand -35.8336 -20.6525
lfingers 7.12502
lthumb -8.94922 9.13772
rfemur -67.9713 -9.17681 25.898
rtibia 108.738
rfoot -27.7343 -2.42032
rtoes -0.914442
lfemur -20.5438 7.29275 -19.5131
ltibia 22.4471
lfoot -13.1331 0.91469
ltoes 12.0999
3502
root 11.3845 22.9889 50.3064 -353.977 -201.424 -352.413
lowerback 30.5099 -1.26614 -0.282075
upperback 5.706 -0.123704 2.9826
thorax -10.3278 0.503572 3.52358
lowerneck -0.169234 3.03687 -9.0888
upperneck -28.0972 9.38683 10.5625
head -9.68956 5.61798 4.30226
rclavicle 4.23411e-014 1.33186e-014
rhumerus 32.8338 35.958 -76.6016
rradius 54.9063
rwrist 15.4789
rhand -32.1707 -2.80124
rfingers 7.12502
rthumb -5.41353 -32.7121
lclavicle 4.23411e-014 1.33186e-014
lhumerus 7.06412 -0.425677 74.7789
lradius 64.9359
lwrist -30.967
lhand -35.9249 -20.7819
lfingers 7.12502
lthumb -9.03734 9.00447
rfemur -68.8165 -8.329 26.3523
rtibia 108.555
rfoot -27.8759 -3.65467
rtoes -5.31329
lfemur -19.895 8.00498 -19.2317
ltibia 21.8561
lfoot -12.9836 0.552335
ltoes 9.21786
3503
root 11.423 22.9933 50.2898 -354.151 -201.231 -352.458
lowerback 30.6948 -1.2123 -0.528342
upperback 5.72275 -0.115987 3.00323
thorax -10.3966 0.520671 3.6909
lowerneck -0.24332 2.95303 -8.94458
upperneck -27.747 9.17971 10.5766
head -9.51622 5.48649 4.30318
rclavicle 1.19271e-014 1.39149e-015
rhumerus 32.435 35.951 -76.8352
rradius 55.1244
rwrist 15.1472
rhand -32.3537 -2.7855
rfingers 7.12502
rthumb -5.59019 -32.6918
lclavicle 1.19271e-014 1.39149e-015
lhumerus 6.87342 -0.598073 74.7978
lradius 64.8928
lwrist -30.8704
lhand -36.2431 -21.0321
lfingers 7.12502
lthumb -9.3444 8.74077
rfemur -69.8436 -7.95873 26.3321
rtibia 108.515
rfoot -28.3334 -3.03194
rtoes -4.85184
lfemur -19.3198 8.21994 -19.1832
ltibia 21.1356
lfoot -11.9668 0.0589442
ltoes 11.5024
